<svg xmlns="http://www.w3.org/2000/svg" viewBox="0 0 256 256" width="256" height="256">
  <!-- Background circle -->
  <circle cx="128" cy="128" r="120" fill="#0d9488" stroke="#0f766e" stroke-width="4"/>
  
  <!-- Hand gesture outline -->
  <g transform="translate(128, 128)">
    <!-- Palm -->
    <ellipse cx="0" cy="10" rx="35" ry="45" fill="none" stroke="#ffffff" stroke-width="3" stroke-linecap="round"/>
    
    <!-- Thumb -->
    <path d="M -25 0 Q -35 -15 -30 -25" fill="none" stroke="#ffffff" stroke-width="3" stroke-linecap="round"/>
    
    <!-- Point Up finger (index) -->
    <path d="M -15 -5 Q -18 -25 -15 -45" fill="none" stroke="#ffffff" stroke-width="3" stroke-linecap="round"/>
    <circle cx="-15" cy="-48" r="4" fill="#ffffff"/>
    
    <!-- Middle finger (folded) -->
    <path d="M 0 -5 Q 2 -15 0 -25" fill="none" stroke="#ffffff" stroke-width="3" stroke-linecap="round"/>
    
    <!-- Ring finger (folded) -->
    <path d="M 15 -5 Q 17 -15 15 -25" fill="none" stroke="#ffffff" stroke-width="3" stroke-linecap="round"/>
    
    <!-- Pinky finger (folded) -->
    <path d="M 25 -2 Q 28 -12 25 -20" fill="none" stroke="#ffffff" stroke-width="3" stroke-linecap="round"/>
  </g>
  
  <!-- File transfer arrows -->
  <g transform="translate(128, 200)">
    <!-- Left arrow -->
    <path d="M -40 0 L -20 -10 L -20 -5 L 0 -5 L 0 5 L -20 5 L -20 10 Z" fill="#14b8a6"/>
    
    <!-- Right arrow -->
    <path d="M 40 0 L 20 -10 L 20 -5 L 0 -5 L 0 5 L 20 5 L 20 10 Z" fill="#14b8a6"/>
  </g>
  
  <!-- QR code representation -->
  <g transform="translate(80, 60)" opacity="0.8">
    <rect x="0" y="0" width="6" height="6" fill="#14b8a6"/>
    <rect x="8" y="0" width="6" height="6" fill="#14b8a6"/>
    <rect x="16" y="0" width="6" height="6" fill="#14b8a6"/>
    <rect x="0" y="8" width="6" height="6" fill="#14b8a6"/>
    <rect x="16" y="8" width="6" height="6" fill="#14b8a6"/>
    <rect x="0" y="16" width="6" height="6" fill="#14b8a6"/>
    <rect x="8" y="16" width="6" height="6" fill="#14b8a6"/>
    <rect x="16" y="16" width="6" height="6" fill="#14b8a6"/>
  </g>
  
  <!-- App title -->
  <text x="128" y="245" text-anchor="middle" font-family="Arial, sans-serif" font-size="12" font-weight="bold" fill="#e5e7eb">
    Gesture Share
  </text>
</svg>
