<svg width="32" height="32" viewBox="0 0 24 24" fill="none" xmlns="http://www.w3.org/2000/svg">
  <rect width="24" height="24" rx="6" fill="#2563EB"/>
  <path d="M7 11.5V14M7 11.5V5.5C7 4.67157 7.67157 4 8.5 4C9.32843 4 10 4.67157 10 5.5M7 11.5C7 12.3284 6.32843 13 5.5 13C4.67157 13 4 12.3284 4 11.5V13.5C4 17.6421 7.35786 21 11.5 21C15.6421 21 19 17.6421 19 13.5V8.5C19 7.67157 18.3284 7 17.5 7C16.6716 7 16 7.67157 16 8.5M10 11.5V11M10 11.5V5.5C10 4.67157 10.6716 4 11.5 4C12.3284 4 13 4.67157 13 5.5V11M10 5.5V4.5C10 3.67157 10.6716 3 11.5 3C12.3284 3 13 3.67157 13 4.5V5.5M13 11.5V11" stroke="white" stroke-width="2" stroke-linecap="round" stroke-linejoin="round"/>
</svg>
